<svg xmlns="http://www.w3.org/2000/svg" xmlns:xlink="http://www.w3.org/1999/xlink" width="350" zoomAndPan="magnify" viewBox="0 0 262.5 262.500001" height="350" preserveAspectRatio="xMidYMid meet" version="1.0"><defs><g/></defs><path fill="#053ba3" d="M 116.792969 7.113281 C 115.246094 5.570312 115.246094 3.0625 116.792969 1.519531 C 118.335938 -0.0273438 120.84375 -0.0273438 122.386719 1.519531 L 134.121094 13.304688 C 135.328125 14.902344 135.164062 17.113281 133.742188 18.519531 L 122.386719 29.875 C 120.84375 31.421875 118.335938 31.421875 116.792969 29.875 C 115.246094 28.332031 115.246094 25.824219 116.792969 24.28125 L 119.933594 21.136719 C 120.28125 20.789062 119.996094 20.1875 119.503906 20.238281 C 71.773438 25.121094 32.351562 60.375 22.203125 107.195312 C 21.742188 109.332031 19.640625 110.6875 17.503906 110.226562 C 15.371094 109.765625 14.011719 107.660156 14.472656 105.527344 C 25.484375 54.726562 68.691406 16.652344 120.632812 12.183594 C 121.078125 12.144531 121.277344 11.601562 120.960938 11.285156 Z M 62.707031 142.976562 L 62.707031 207.148438 C 62.707031 207.621094 63.28125 207.855469 63.609375 207.515625 L 71.753906 199.183594 C 77.054688 193.757812 83.746094 190.933594 91.3125 190.933594 L 145.082031 190.933594 C 152.792969 190.933594 159.117188 184.609375 159.117188 176.898438 L 159.117188 142.976562 C 159.117188 135.265625 152.792969 128.941406 145.082031 128.941406 L 76.742188 128.941406 C 69.03125 128.941406 62.707031 135.265625 62.707031 142.976562 Z M 123.792969 98.9375 L 123.792969 120.570312 C 123.792969 120.863281 124.03125 121.097656 124.320312 121.097656 L 145.082031 121.097656 C 156.746094 121.097656 166.363281 130.335938 166.933594 141.890625 C 166.949219 142.171875 167.179688 142.394531 167.460938 142.394531 L 185.375 142.394531 C 192.375 142.394531 198.574219 145.011719 203.480469 150.027344 L 210.253906 156.960938 C 210.585938 157.300781 211.160156 157.066406 211.160156 156.59375 L 211.160156 98.9375 C 211.160156 92.082031 205.535156 86.457031 198.683594 86.457031 L 136.269531 86.457031 C 129.417969 86.457031 123.792969 92.082031 123.792969 98.9375 Z M 194.179688 108.046875 L 149.773438 108.046875 C 147.605469 108.046875 145.851562 106.292969 145.851562 104.125 C 145.851562 101.960938 147.605469 100.203125 149.773438 100.203125 L 194.179688 100.203125 C 196.34375 100.203125 198.101562 101.960938 198.101562 104.125 C 198.101562 106.292969 196.34375 108.046875 194.179688 108.046875 Z M 174.488281 117.871094 L 194.179688 117.871094 C 196.34375 117.871094 198.101562 119.625 198.101562 121.789062 C 198.101562 123.957031 196.34375 125.710938 194.179688 125.710938 L 174.488281 125.710938 C 172.320312 125.710938 170.566406 123.957031 170.566406 121.789062 C 170.566406 119.625 172.320312 117.871094 174.488281 117.871094 Z M 121.914062 84.582031 C 125.597656 80.898438 130.679688 78.613281 136.269531 78.613281 L 154.871094 78.613281 C 155.160156 78.613281 155.398438 78.378906 155.398438 78.085938 L 155.398438 67.597656 C 155.398438 62.1875 150.960938 57.75 145.554688 57.75 L 104.339844 57.75 C 98.300781 57.75 92.925781 55.480469 88.691406 51.152344 L 84.230469 46.585938 C 83.898438 46.246094 83.324219 46.480469 83.324219 46.953125 L 83.324219 93.597656 C 83.324219 99.003906 87.761719 103.441406 93.167969 103.441406 L 115.421875 103.441406 C 115.710938 103.441406 115.949219 103.203125 115.949219 102.914062 L 115.949219 98.9375 C 115.949219 93.34375 118.234375 88.261719 121.914062 84.582031 Z M 122.171875 66.128906 L 95.921875 66.128906 C 93.757812 66.128906 92 67.882812 92 70.050781 C 92 72.214844 93.753906 73.972656 95.921875 73.972656 L 122.171875 73.972656 C 124.335938 73.972656 126.09375 72.214844 126.09375 70.050781 C 126.09375 67.882812 124.335938 66.128906 122.171875 66.128906 Z M 95.921875 83.410156 C 93.757812 83.410156 92 85.164062 92 87.332031 C 92 89.5 93.753906 91.253906 95.921875 91.253906 L 107.5625 91.253906 C 109.726562 91.253906 111.484375 89.5 111.484375 87.332031 C 111.484375 85.167969 109.726562 83.410156 107.5625 83.410156 Z M 80.933594 173.550781 C 80.933594 171.382812 82.691406 169.628906 84.855469 169.628906 L 109.164062 169.628906 C 111.328125 169.628906 113.085938 171.382812 113.085938 173.550781 C 113.085938 175.714844 111.328125 177.472656 109.164062 177.472656 L 84.855469 177.472656 C 82.691406 177.472656 80.933594 175.714844 80.933594 173.550781 Z M 84.855469 153.601562 C 82.691406 153.601562 80.933594 151.84375 80.933594 149.679688 C 80.933594 147.511719 82.691406 145.757812 84.855469 145.757812 L 139.671875 145.757812 C 141.835938 145.757812 143.59375 147.511719 143.59375 149.679688 C 143.59375 151.84375 141.835938 153.601562 139.671875 153.601562 Z M 7.113281 145.148438 C 5.570312 146.695312 3.0625 146.695312 1.519531 145.148438 C -0.0273438 143.601562 -0.0273438 141.097656 1.519531 139.550781 L 13.304688 127.816406 C 14.902344 126.609375 17.113281 126.773438 18.519531 128.195312 L 29.875 139.550781 C 31.421875 141.097656 31.421875 143.605469 29.875 145.148438 C 28.332031 146.695312 25.824219 146.695312 24.28125 145.148438 L 21.136719 142.007812 C 20.789062 141.65625 20.1875 141.945312 20.238281 142.433594 C 25.121094 190.164062 60.375 229.585938 107.195312 239.734375 C 109.332031 240.195312 110.6875 242.300781 110.226562 244.433594 C 109.765625 246.570312 107.660156 247.925781 105.527344 247.464844 C 54.726562 236.453125 16.652344 193.25 12.183594 141.308594 C 12.144531 140.859375 11.601562 140.660156 11.285156 140.980469 Z M 232.0625 122.386719 C 230.519531 120.84375 230.519531 118.335938 232.0625 116.792969 C 233.609375 115.246094 236.113281 115.246094 237.660156 116.792969 L 240.800781 119.933594 C 241.152344 120.28125 241.75 119.996094 241.699219 119.503906 C 236.816406 71.773438 201.5625 32.351562 154.742188 22.203125 C 152.609375 21.742188 151.253906 19.640625 151.714844 17.503906 C 152.175781 15.371094 154.277344 14.011719 156.414062 14.472656 C 207.214844 25.484375 245.289062 68.691406 249.757812 120.632812 C 249.796875 121.078125 250.339844 121.277344 250.65625 120.960938 L 254.824219 116.789062 C 256.371094 115.246094 258.875 115.246094 260.421875 116.789062 C 261.964844 118.335938 261.964844 120.84375 260.421875 122.386719 L 248.632812 134.121094 C 247.035156 135.328125 244.828125 135.164062 243.417969 133.742188 Z M 139.550781 232.0625 C 141.097656 230.519531 143.605469 230.519531 145.148438 232.0625 C 146.695312 233.609375 146.695312 236.113281 145.148438 237.660156 L 142.007812 240.800781 C 141.65625 241.152344 141.945312 241.75 142.433594 241.699219 C 190.164062 236.816406 229.585938 201.5625 239.734375 154.742188 C 240.195312 152.609375 242.300781 151.253906 244.433594 151.714844 C 246.570312 152.175781 247.925781 154.277344 247.464844 156.414062 C 236.453125 207.214844 193.25 245.289062 141.308594 249.757812 C 140.859375 249.796875 140.660156 250.339844 140.980469 250.65625 L 145.148438 254.824219 C 146.695312 256.371094 146.695312 258.875 145.148438 260.421875 C 143.601562 261.964844 141.097656 261.964844 139.550781 260.421875 L 127.816406 248.632812 C 126.609375 247.035156 126.773438 244.828125 128.195312 243.417969 Z M 139.550781 232.0625 " fill-opacity="1" fill-rule="evenodd"/><g fill="#053ba3" fill-opacity="1"><g transform="translate(123.841703, 177.056825)"><g><path d="M 0.71875 -0.5 C 0.71875 -0.71875 0.765625 -0.878906 0.859375 -0.984375 C 0.960938 -1.097656 1.109375 -1.15625 1.296875 -1.15625 C 1.472656 -1.15625 1.613281 -1.097656 1.71875 -0.984375 C 1.820312 -0.878906 1.875 -0.71875 1.875 -0.5 C 1.875 -0.300781 1.820312 -0.144531 1.71875 -0.03125 C 1.613281 0.0820312 1.472656 0.140625 1.296875 0.140625 C 1.128906 0.140625 0.988281 0.09375 0.875 0 C 0.769531 -0.101562 0.71875 -0.269531 0.71875 -0.5 Z M 0.71875 -0.5 "/></g></g></g></svg>