{
  "accessors": [
    {
      "bufferView": 2,
      "componentType": 5126,
      "count": 2066,
      "max": [
        -0.7915444374084473,
        0.1089155375957489,
        0.2161761224269867
      ],
      "min": [
        -1.0048277378082275,
        -0.18500922620296478,
        -0.22092899680137634
      ],
      "type": "VEC3"
    },
    {
      "bufferView": 2,
      "byteOffset": 24792,
      "componentType": 5126,
      "count": 2066,
      "max": [
        0.9999209642410278,
        0.9977149367332458,
        0.9999651312828064
      ],
      "min": [
        -0.9996698498725891,
        -0.9982784986495972,
        -0.9999651908874512
      ],
      "type": "VEC3"
    },
    {
      "bufferView": 1,
      "componentType": 5126,
      "count": 2066,
      "max": [
        0.9941409826278687,
        1.9695889949798584
      ],
      "min": [
        0.0041240002028644085,
        1.0043950080871582
      ],
      "type": "VEC2"
    },
    {
      "bufferView": 0,
      "componentType": 5125,
      "count": 10740,
      "type": "SCALAR"
    },
    {
      "bufferView": 2,
      "byteOffset": 49584,
      "componentType": 5126,
      "count": 10176,
      "max": [
        0.13221041858196259,
        0.09304487705230713,
        0.2379836142063141
      ],
      "min": [
        -0.8426902294158936,
        -0.1942986249923706,
        -0.22303111851215363
      ],
      "type": "VEC3"
    },
    {
      "bufferView": 2,
      "byteOffset": 171696,
      "componentType": 5126,
      "count": 10176,
      "max": [
        0.9999644756317139,
        0.9996808171272278,
        0.9998916387557983
      ],
      "min": [
        -0.9995236992835999,
        -0.9999599456787109,
        -0.9998910427093506
      ],
      "type": "VEC3"
    },
    {
      "bufferView": 1,
      "byteOffset": 16528,
      "componentType": 5126,
      "count": 10176,
      "max": [
        0.9975590109825134,
        1.9938740730285645
      ],
      "min": [
        0.003616000059992075,
        1.0014649629592896
      ],
      "type": "VEC2"
    },
    {
      "bufferView": 0,
      "byteOffset": 42960,
      "componentType": 5125,
      "count": 39318,
      "type": "SCALAR"
    },
    {
      "bufferView": 2,
      "byteOffset": 293808,
      "componentType": 5126,
      "count": 2703,
      "max": [
        0.7756966352462769,
        0.10395374894142151,
        0.24049554765224457
      ],
      "min": [
        -0.04736805707216263,
        -0.28359776735305786,
        -0.24631188809871674
      ],
      "type": "VEC3"
    },
    {
      "bufferView": 2,
      "byteOffset": 326244,
      "componentType": 5126,
      "count": 2703,
      "max": [
        0.9730026125907898,
        0.9996504783630371,
        0.9893093705177307
      ],
      "min": [
        -0.8884609341621399,
        -0.9996504783630371,
        -0.9960683584213257
      ],
      "type": "VEC3"
    },
    {
      "bufferView": 1,
      "byteOffset": 97936,
      "componentType": 5126,
      "count": 2703,
      "max": [
        0.997649610042572,
        1.9959118366241455
      ],
      "min": [
        0.003259100019931793,
        1.0028076171875
      ],
      "type": "VEC2"
    },
    {
      "bufferView": 0,
      "byteOffset": 200232,
      "componentType": 5125,
      "count": 2703,
      "type": "SCALAR"
    },
    {
      "bufferView": 2,
      "byteOffset": 358680,
      "componentType": 5126,
      "count": 3072,
      "max": [
        0.6396740078926086,
        0.09579624235630035,
        0.48915982246398926
      ],
      "min": [
        0.04482431709766388,
        -0.19048351049423218,
        -0.49250829219818115
      ],
      "type": "VEC3"
    },
    {
      "bufferView": 2,
      "byteOffset": 395544,
      "componentType": 5126,
      "count": 3072,
      "max": [
        0.994012713432312,
        0.9999761581420898,
        0.9943976402282715
      ],
      "min": [
        -0.9841314554214478,
        -0.9998235702514648,
        -0.9997115731239319
      ],
      "type": "VEC3"
    },
    {
      "bufferView": 1,
      "byteOffset": 119560,
      "componentType": 5126,
      "count": 3072,
      "max": [
        0.9936519861221313,
        1.8635249137878418
      ],
      "min": [
        0.0041240002028644085,
        1.0043950080871582
      ],
      "type": "VEC2"
    },
    {
      "bufferView": 0,
      "byteOffset": 211044,
      "componentType": 5125,
      "count": 16890,
      "type": "SCALAR"
    },
    {
      "bufferView": 2,
      "byteOffset": 432408,
      "componentType": 5126,
      "count": 2453,
      "max": [
        0.8361608982086182,
        0.09056399762630463,
        0.0778271034359932
      ],
      "min": [
        0.5416293144226074,
        -0.1261371523141861,
        -0.08257578313350677
      ],
      "type": "VEC3"
    },
    {
      "bufferView": 2,
      "byteOffset": 461844,
      "componentType": 5126,
      "count": 2453,
      "max": [
        0.9993029236793518,
        0.9992828369140625,
        0.9995408058166504
      ],
      "min": [
        -0.9997768402099609,
        -0.9998723268508911,
        -0.9999256730079651
      ],
      "type": "VEC3"
    },
    {
      "bufferView": 1,
      "byteOffset": 144136,
      "componentType": 5126,
      "count": 2453,
      "max": [
        0.9951170086860657,
        1.9954379796981812
      ],
      "min": [
        0.00407399982213974,
        1.0043950080871582
      ],
      "type": "VEC2"
    },
    {
      "bufferView": 0,
      "byteOffset": 278604,
      "componentType": 5125,
      "count": 13578,
      "type": "SCALAR"
    },
    {
      "bufferView": 2,
      "byteOffset": 491280,
      "componentType": 5126,
      "count": 3932,
      "max": [
        0.08507929742336273,
        -0.005806616507470608,
        0.5911214351654053
      ],
      "min": [
        -0.1685735285282135,
        -0.13677509129047394,
        -0.5941669940948486
      ],
      "type": "VEC3"
    },
    {
      "bufferView": 2,
      "byteOffset": 538464,
      "componentType": 5126,
      "count": 3932,
      "max": [
        0.9994019865989685,
        0.999284565448761,
        0.9999558329582214
      ],
      "min": [
        -0.9999721646308899,
        -0.9999632239341736,
        -0.9989858269691467
      ],
      "type": "VEC3"
    },
    {
      "bufferView": 1,
      "byteOffset": 163760,
      "componentType": 5126,
      "count": 3932,
      "max": [
        0.9936519861221313,
        1.994292974472046
      ],
      "min": [
        0.0041240002028644085,
        1.0043950080871582
      ],
      "type": "VEC2"
    },
    {
      "bufferView": 0,
      "byteOffset": 332916,
      "componentType": 5125,
      "count": 18864,
      "type": "SCALAR"
    }
  ],
  "asset": {
    "extras": {
      "author": "CGI DUDE (https://sketchfab.com/Osman23)",
      "license": "CC-BY-4.0 (http://creativecommons.org/licenses/by/4.0/)",
      "source": "https://sketchfab.com/3d-models/deadpool-movie-model-0894b38ab97740a9a083c783299f52a5",
      "title": "Deadpool Movie Model"
    },
    "generator": "Sketchfab-13.58.0",
    "version": "2.0"
  },
  "bufferViews": [
    {
      "buffer": 0,
      "byteLength": 408372,
      "name": "floatBufferViews",
      "target": 34963
    },
    {
      "buffer": 0,
      "byteLength": 195216,
      "byteOffset": 408372,
      "byteStride": 8,
      "name": "floatBufferViews",
      "target": 34962
    },
    {
      "buffer": 0,
      "byteLength": 585648,
      "byteOffset": 603588,
      "byteStride": 12,
      "name": "floatBufferViews",
      "target": 34962
    }
  ],
  "buffers": [
    {
      "byteLength": 1189236,
      "uri": "scene.bin"
    }
  ],
  "images": [
    {
      "uri": "textures/lambert5_baseColor.png"
    },
    {
      "uri": "textures/lambert7_baseColor.png"
    },
    {
      "uri": "textures/lambert2_baseColor.png"
    }
  ],
  "materials": [
    {
      "doubleSided": true,
      "name": "lambert5",
      "pbrMetallicRoughness": {
        "baseColorTexture": {
          "index": 0
        },
        "metallicFactor": 0.0,
        "roughnessFactor": 0.6
      }
    },
    {
      "doubleSided": true,
      "name": "lambert4",
      "pbrMetallicRoughness": {
        "baseColorTexture": {
          "index": 0
        },
        "metallicFactor": 0.0,
        "roughnessFactor": 0.6
      }
    },
    {
      "doubleSided": true,
      "name": "lambert7",
      "pbrMetallicRoughness": {
        "baseColorTexture": {
          "index": 1
        },
        "metallicFactor": 0.0,
        "roughnessFactor": 0.6
      }
    },
    {
      "doubleSided": true,
      "name": "lambert8",
      "pbrMetallicRoughness": {
        "baseColorTexture": {
          "index": 0
        },
        "metallicFactor": 0.0,
        "roughnessFactor": 0.6
      }
    },
    {
      "doubleSided": true,
      "name": "lambert2",
      "pbrMetallicRoughness": {
        "baseColorTexture": {
          "index": 2
        },
        "metallicFactor": 0.0,
        "roughnessFactor": 0.6
      }
    },
    {
      "doubleSided": true,
      "name": "lambert6",
      "pbrMetallicRoughness": {
        "baseColorTexture": {
          "index": 0
        },
        "metallicFactor": 0.0,
        "roughnessFactor": 0.6
      }
    }
  ],
  "meshes": [
    {
      "name": "Mesh_0000.rip_lambert5_0",
      "primitives": [
        {
          "attributes": {
            "NORMAL": 1,
            "POSITION": 0,
            "TEXCOORD_0": 2
          },
          "indices": 3,
          "material": 0,
          "mode": 4
        }
      ]
    },
    {
      "name": "Mesh_0001.rip_lambert4_0",
      "primitives": [
        {
          "attributes": {
            "NORMAL": 5,
            "POSITION": 4,
            "TEXCOORD_0": 6
          },
          "indices": 7,
          "material": 1,
          "mode": 4
        }
      ]
    },
    {
      "name": "Mesh_0002.rip_lambert7_0",
      "primitives": [
        {
          "attributes": {
            "NORMAL": 9,
            "POSITION": 8,
            "TEXCOORD_0": 10
          },
          "indices": 11,
          "material": 2,
          "mode": 4
        }
      ]
    },
    {
      "name": "Mesh_0003.rip_lambert8_0",
      "primitives": [
        {
          "attributes": {
            "NORMAL": 13,
            "POSITION": 12,
            "TEXCOORD_0": 14
          },
          "indices": 15,
          "material": 3,
          "mode": 4
        }
      ]
    },
    {
      "name": "Mesh_0004.rip_lambert2_0",
      "primitives": [
        {
          "attributes": {
            "NORMAL": 17,
            "POSITION": 16,
            "TEXCOORD_0": 18
          },
          "indices": 19,
          "material": 4,
          "mode": 4
        }
      ]
    },
    {
      "name": "Mesh_0005.rip_lambert6_0",
      "primitives": [
        {
          "attributes": {
            "NORMAL": 21,
            "POSITION": 20,
            "TEXCOORD_0": 22
          },
          "indices": 23,
          "material": 5,
          "mode": 4
        }
      ]
    }
  ],
  "nodes": [
    {
      "children": [
        1
      ],
      "matrix": [
        1.0,
        0.0,
        0.0,
        0.0,
        0.0,
        2.220446049250313e-16,
        -1.0,
        0.0,
        0.0,
        1.0,
        2.220446049250313e-16,
        0.0,
        0.0,
        0.0,
        0.0,
        1.0
      ],
      "name": "Sketchfab_model"
    },
    {
      "children": [
        2
      ],
      "matrix": [
        0.009999999776482582,
        0.0,
        0.0,
        0.0,
        0.0,
        0.0,
        0.009999999776482582,
        0.0,
        0.0,
        -0.009999999776482582,
        0.0,
        0.0,
        0.0,
        0.0,
        0.0,
        1.0
      ],
      "name": "deadpool.fbx"
    },
    {
      "children": [
        3,
        5,
        7,
        9,
        11,
        13
      ],
      "name": "RootNode"
    },
    {
      "children": [
        4
      ],
      "matrix": [
        0.0,
        1.0,
        1.6653345369377348e-16,
        0.0,
        -1.6653345369377348e-16,
        -2.220446049250313e-16,
        1.0,
        0.0,
        1.0,
        0.0,
        1.1102230246251565e-16,
        0.0,
        0.0,
        1.0188318490982056,
        0.0,
        1.0
      ],
      "name": "Mesh_0000.rip"
    },
    {
      "mesh": 0,
      "name": "Mesh_0000.rip_lambert5_0"
    },
    {
      "children": [
        6
      ],
      "matrix": [
        0.0,
        1.0,
        1.6653345369377348e-16,
        0.0,
        -1.6653345369377348e-16,
        -2.220446049250313e-16,
        1.0,
        0.0,
        1.0,
        0.0,
        1.1102230246251565e-16,
        0.0,
        0.0,
        1.0188318490982056,
        0.0,
        1.0
      ],
      "name": "Mesh_0001.rip"
    },
    {
      "mesh": 1,
      "name": "Mesh_0001.rip_lambert4_0"
    },
    {
      "children": [
        8
      ],
      "matrix": [
        0.0,
        1.0,
        1.6653345369377348e-16,
        0.0,
        -1.6653345369377348e-16,
        -2.220446049250313e-16,
        1.0,
        0.0,
        1.0,
        0.0,
        1.1102230246251565e-16,
        0.0,
        0.0,
        1.0188318490982056,
        0.0,
        1.0
      ],
      "name": "Mesh_0002.rip"
    },
    {
      "mesh": 2,
      "name": "Mesh_0002.rip_lambert7_0"
    },
    {
      "children": [
        10
      ],
      "matrix": [
        0.0,
        1.0,
        1.6653345369377348e-16,
        0.0,
        -1.6653345369377348e-16,
        -2.220446049250313e-16,
        1.0,
        0.0,
        1.0,
        0.0,
        1.1102230246251565e-16,
        0.0,
        0.0,
        1.0188318490982056,
        0.0,
        1.0
      ],
      "name": "Mesh_0003.rip"
    },
    {
      "mesh": 3,
      "name": "Mesh_0003.rip_lambert8_0"
    },
    {
      "children": [
        12
      ],
      "matrix": [
        0.0,
        1.0,
        1.6653345369377348e-16,
        0.0,
        -1.6653345369377348e-16,
        -2.220446049250313e-16,
        1.0,
        0.0,
        1.0,
        0.0,
        1.1102230246251565e-16,
        0.0,
        0.0,
        1.0188318490982056,
        0.0,
        1.0
      ],
      "name": "Mesh_0004.rip"
    },
    {
      "mesh": 4,
      "name": "Mesh_0004.rip_lambert2_0"
    },
    {
      "children": [
        14
      ],
      "matrix": [
        0.0,
        1.0,
        1.6653345369377348e-16,
        0.0,
        -1.6653345369377348e-16,
        -2.220446049250313e-16,
        1.0,
        0.0,
        1.0,
        0.0,
        1.1102230246251565e-16,
        0.0,
        0.0,
        1.0188318490982056,
        0.0,
        1.0
      ],
      "name": "Mesh_0005.rip"
    },
    {
      "mesh": 5,
      "name": "Mesh_0005.rip_lambert6_0"
    }
  ],
  "samplers": [
    {
      "magFilter": 9729,
      "minFilter": 9987,
      "wrapS": 10497,
      "wrapT": 10497
    }
  ],
  "scene": 0,
  "scenes": [
    {
      "name": "Sketchfab_Scene",
      "nodes": [
        0
      ]
    }
  ],
  "textures": [
    {
      "sampler": 0,
      "source": 0
    },
    {
      "sampler": 0,
      "source": 1
    },
    {
      "sampler": 0,
      "source": 2
    }
  ]
}
