<svg width="20" height="21" viewBox="0 0 20 21" fill="none" xmlns="http://www.w3.org/2000/svg">
<path d="M14.2939 13.003H13.3905L13.0703 12.6995C14.191 11.4183 14.8656 9.7549 14.8656 7.94541C14.8656 3.91059 11.538 0.640015 7.43282 0.640015C3.32762 0.640015 0 3.91059 0 7.94541C0 11.9802 3.32762 15.2508 7.43282 15.2508C9.27387 15.2508 10.9663 14.5877 12.2699 13.4863L12.5786 13.801V14.6889L18.2962 20.2972L20 18.6225L14.2939 13.003ZM7.43282 13.003C4.58548 13.003 2.28702 10.7439 2.28702 7.94541C2.28702 5.14688 4.58548 2.88783 7.43282 2.88783C10.2802 2.88783 12.5786 5.14688 12.5786 7.94541C12.5786 10.7439 10.2802 13.003 7.43282 13.003Z" fill="white"/>
</svg>
